<?xml version="1.0" encoding="UTF-8" standalone="no"?>
<!DOCTYPE svg PUBLIC "-//W3C//DTD SVG 1.1//EN" "http://www.w3.org/Graphics/SVG/1.1/DTD/svg11.dtd">
<svg width="100%" height="100%" viewBox="0 0 800 800" version="1.1" xmlns="http://www.w3.org/2000/svg" xmlns:xlink="http://www.w3.org/1999/xlink" xml:space="preserve" xmlns:serif="http://www.serif.com/" style="fill-rule:evenodd;clip-rule:evenodd;stroke-linejoin:round;stroke-miterlimit:2;">
    <g transform="matrix(0.631589,0,0,0.631589,43.5285,146.626)">
        <g transform="matrix(1.07584,0,0,1.07584,151.432,-11.8026)">
            <path d="M767.717,128.453C767.717,57.558 710.159,0 639.264,0L128.453,0C57.558,0 0,57.558 0,128.453L0,639.264C0,710.159 57.558,767.717 128.453,767.717L639.264,767.717C710.159,767.717 767.717,710.159 767.717,639.264L767.717,128.453Z" style="fill:rgb(255,255,192);"/>
        </g>
        <g transform="matrix(1.07584,0,0,1.07584,151.432,-11.8026)">
            <path d="M938.745,128.453L938.745,639.264C938.745,804.552 804.552,938.745 639.264,938.745L128.453,938.745C-36.835,938.745 -171.028,804.552 -171.028,639.264L-171.028,128.453C-171.028,-36.835 -36.835,-171.028 128.453,-171.028L639.264,-171.028C804.552,-171.028 938.745,-36.835 938.745,128.453ZM767.717,128.453C767.717,57.558 710.159,0 639.264,0L128.453,0C57.558,0 0,57.558 0,128.453L0,639.264C0,710.159 57.558,767.717 128.453,767.717L639.264,767.717C710.159,767.717 767.717,710.159 767.717,639.264L767.717,128.453Z" style="fill:rgb(255,214,0);"/>
        </g>
        <g transform="matrix(1.70836,0,0,1.70836,-86.7168,85.2666)">
            <path d="M292.249,142.465C289.929,142.465 285.718,139.779 279.614,134.408C274.121,129.403 270.032,124.948 267.346,121.042C255.628,127.389 245.313,132.181 236.402,135.415C227.49,138.65 220.044,140.268 214.063,140.268C185.498,140.268 164.685,132.211 151.624,116.098C139.295,100.961 133.13,77.768 133.13,46.518C133.13,16.977 143.292,-8.292 163.617,-29.288C183.942,-50.284 208.203,-60.782 236.402,-60.782C247.022,-60.782 258.924,-58.035 272.107,-52.542C288.709,-45.706 297.009,-37.467 297.009,-27.823C297.009,-24.527 295.789,-21.598 293.347,-19.034C292.127,-14.395 291.181,-6.766 290.509,3.854C289.838,14.474 289.441,28.085 289.319,44.687C289.197,59.823 290.235,71.786 292.432,80.575C293.653,85.946 297.498,96.689 303.967,112.802C304.822,114.999 306.226,118.234 308.179,122.507L309.278,125.619C309.278,130.502 307.569,134.53 304.151,137.704C300.733,140.878 296.765,142.465 292.249,142.465ZM254.163,15.207C254.163,9.958 254.498,4.251 255.17,-1.914C255.841,-8.078 256.848,-14.639 258.191,-21.598C253.675,-23.917 249.799,-25.626 246.564,-26.724C243.329,-27.823 240.735,-28.372 238.782,-28.372C219.861,-28.372 203.534,-20.651 189.801,-5.21C176.068,10.232 169.202,28.024 169.202,48.166C169.202,68.185 172.742,83.2 179.822,93.21C186.902,103.219 197.522,108.224 211.682,108.224C223.401,108.224 233.35,106.088 241.529,101.816C245.923,99.496 252.088,94.858 260.022,87.9C256.116,55.551 254.163,31.32 254.163,15.207Z" style="fill:rgb(255,0,0);fill-rule:nonzero;"/>
        </g>
        <g transform="matrix(1.70836,0,0,1.70836,-86.7168,85.2666)">
            <path d="M292.249,146.167C290.878,146.167 289.013,145.674 286.747,144.405C284.288,143.026 281.085,140.633 277.169,137.187C277.153,137.173 277.137,137.159 277.122,137.145C272.589,133.015 268.979,129.233 266.277,125.815C255.533,131.514 245.994,135.871 237.665,138.895C228.254,142.311 220.379,143.969 214.063,143.969C184.145,143.969 162.433,135.308 148.751,118.433C136,102.776 129.429,78.839 129.429,46.518C129.429,15.973 139.942,-10.153 160.958,-31.862C182.023,-53.623 207.176,-64.484 236.402,-64.484C247.44,-64.484 259.821,-61.671 273.524,-55.962C292.035,-48.338 300.711,-38.577 300.711,-27.823C300.711,-23.897 299.398,-20.361 296.714,-17.239C295.637,-12.687 294.814,-5.576 294.203,4.088C293.535,14.654 293.142,28.196 293.02,44.714L293.02,44.717C292.902,59.461 293.883,71.116 296.023,79.678C296.029,79.703 296.035,79.729 296.041,79.755C297.241,85.034 301.043,95.585 307.402,111.423C307.407,111.435 307.412,111.448 307.417,111.46C308.254,113.613 309.632,116.782 311.545,120.968C311.591,121.068 311.633,121.17 311.669,121.275L312.768,124.387C312.908,124.783 312.979,125.2 312.979,125.619C312.979,131.603 310.858,136.527 306.669,140.417C302.53,144.26 297.719,146.167 292.249,146.167ZM292.249,138.763C295.812,138.763 298.935,137.496 301.632,134.992C304.137,132.665 305.433,129.736 305.565,126.222C305.565,126.222 304.743,123.894 304.744,123.896C302.793,119.624 301.388,116.379 300.525,114.164C293.965,97.824 290.082,86.909 288.833,81.441C286.584,72.427 285.493,60.168 285.618,44.659C285.74,27.974 286.14,14.294 286.815,3.621C287.507,-7.33 288.509,-15.193 289.768,-19.976C289.927,-20.58 290.236,-21.134 290.667,-21.587C292.403,-23.41 293.308,-25.479 293.308,-27.823C293.308,-31.718 291.529,-35.281 288.176,-38.609C284.299,-42.457 278.452,-45.927 270.698,-49.12C270.693,-49.122 270.688,-49.124 270.683,-49.126C258.022,-54.401 246.601,-57.081 236.402,-57.081C209.23,-57.081 185.861,-46.945 166.277,-26.713C146.643,-6.431 136.832,17.981 136.832,46.518C136.832,76.695 142.588,99.143 154.494,113.76L154.499,113.767C166.941,129.116 186.853,136.566 214.063,136.566C219.709,136.566 226.727,134.99 235.139,131.936C243.907,128.753 254.053,124.033 265.583,117.787C267.248,116.885 269.324,117.385 270.397,118.945C272.953,122.663 276.859,126.888 282.094,131.66C285.486,134.643 288.234,136.751 290.367,137.947C291.171,138.398 291.762,138.763 292.249,138.763ZM257.864,15.207C257.864,31.222 259.815,55.304 263.697,87.456C263.844,88.669 263.382,89.877 262.463,90.683C254.232,97.901 247.815,102.683 243.256,105.089C243.252,105.092 243.247,105.094 243.242,105.096C234.591,109.616 224.078,111.926 211.682,111.926C196.155,111.926 184.564,106.323 176.8,95.347C169.378,84.854 165.5,69.153 165.5,48.166C165.5,27.098 172.671,8.483 187.035,-7.669C201.536,-23.975 218.802,-32.074 238.782,-32.074C241.031,-32.074 244.029,-31.494 247.754,-30.229C251.128,-29.084 255.172,-27.309 259.882,-24.89C261.345,-24.139 262.137,-22.511 261.826,-20.896C260.503,-14.044 259.511,-7.583 258.85,-1.513C258.194,4.507 257.864,10.081 257.864,15.207ZM250.461,15.207C250.461,9.835 250.803,3.994 251.49,-2.314C252.082,-7.752 252.931,-13.494 254.038,-19.539C250.752,-21.144 247.865,-22.373 245.374,-23.22C242.629,-24.152 240.439,-24.671 238.782,-24.671C220.92,-24.671 205.532,-17.328 192.567,-2.75C179.466,11.982 172.903,28.951 172.903,48.166C172.903,67.218 176.106,81.546 182.844,91.072C189.241,100.116 198.889,104.523 211.682,104.523C222.721,104.523 232.103,102.561 239.808,98.538C243.763,96.45 249.186,92.386 256.113,86.395C252.34,54.823 250.461,31.093 250.461,15.207Z" style="fill:rgb(113,4,0);"/>
        </g>
        <g transform="matrix(1.72571,0,0,1.72571,81.8971,94.7232)">
            <path d="M426.648,138.07C407.971,138.07 391.004,134.408 375.745,127.084C371.839,132.944 367.078,135.873 361.463,135.873C356.824,135.873 352.887,134.256 349.652,131.021C346.417,127.786 344.8,123.727 344.8,118.844C344.8,115.671 344.953,110.971 345.258,104.745C345.563,98.52 345.716,93.82 345.716,90.646C345.716,77.707 345.38,58.328 344.708,32.51C344.037,6.692 343.701,-12.686 343.701,-25.626C343.701,-34.537 343.762,-51.413 343.884,-76.254C344.007,-101.096 344.068,-118.033 344.068,-127.066C344.068,-134.39 345.593,-140.982 348.645,-146.842C352.674,-154.288 358.228,-158.011 365.308,-158.011C374.463,-158.011 379.041,-152.701 379.041,-142.081C379.041,-140.372 378.736,-137.869 378.125,-134.574C377.515,-131.278 377.21,-128.775 377.21,-127.066L376.66,-86.966L376.294,-40.274C386.914,-47.476 397.016,-52.878 406.598,-56.479C416.181,-60.08 425.183,-61.881 433.606,-61.881C459.851,-61.881 481.153,-51.81 497.51,-31.668C512.891,-12.747 520.581,10.507 520.581,38.095C520.581,65.927 511.609,89.548 493.665,108.957C475.72,128.366 453.382,138.07 426.648,138.07ZM433.606,-27.274C423.596,-27.274 413.342,-24.466 402.844,-18.851C397.717,-16.043 388.928,-10.001 376.477,-0.723L376.111,30.954L376.294,59.518L376.477,89.548C382.337,92.233 390.576,95.651 401.196,99.801C408.765,102.121 417.249,103.28 426.648,103.28C444.348,103.28 458.875,97.055 470.227,84.604C481.58,72.152 487.256,56.65 487.256,38.095C487.256,19.906 482.678,4.709 473.523,-7.498C463.635,-20.682 450.33,-27.274 433.606,-27.274Z" style="fill:rgb(0,255,0);fill-rule:nonzero;"/>
        </g>
        <g transform="matrix(1.72571,0,0,1.72571,81.8971,94.7232)">
            <path d="M426.648,141.735C408.506,141.735 391.931,138.368 376.916,131.664C372.56,136.992 367.361,139.538 361.463,139.538C355.805,139.538 351.007,137.557 347.061,133.612C343.134,129.685 341.136,124.772 341.136,118.844C341.136,115.63 341.289,110.871 341.598,104.566C341.899,98.419 342.051,93.78 342.051,90.646C342.051,77.728 341.716,58.381 341.045,32.605C340.373,6.745 340.037,-12.665 340.037,-25.626C340.037,-34.54 340.098,-51.422 340.22,-76.272C340.342,-101.105 340.403,-118.036 340.403,-127.066C340.403,-135.019 342.082,-142.172 345.395,-148.534C345.404,-148.551 345.413,-148.568 345.422,-148.585C350.203,-157.423 356.905,-161.675 365.308,-161.675C371.149,-161.675 375.462,-159.809 378.383,-156.421C381.141,-153.222 382.705,-148.479 382.705,-142.081C382.705,-140.221 382.393,-137.494 381.728,-133.906C381.172,-130.902 380.874,-128.624 380.874,-127.066C380.874,-127.05 380.874,-127.033 380.874,-127.016L380.324,-86.927C380.324,-86.927 380.012,-47.08 380.012,-47.08C388.803,-52.603 397.237,-56.876 405.309,-59.909C415.347,-63.682 424.783,-65.545 433.606,-65.545C461.021,-65.545 483.268,-55.018 500.354,-33.979C516.248,-14.427 524.246,9.587 524.246,38.095C524.246,66.908 514.932,91.351 496.355,111.444C477.69,131.633 454.456,141.735 426.648,141.735ZM426.648,134.406C452.307,134.406 473.751,125.098 490.974,106.469C508.286,87.744 516.917,64.946 516.917,38.095C516.917,11.428 509.534,-11.067 494.667,-29.357L494.666,-29.358C479.037,-48.602 458.682,-58.216 433.606,-58.216C425.584,-58.216 417.014,-56.479 407.887,-53.049C398.546,-49.538 388.704,-44.263 378.351,-37.242C377.224,-36.477 375.766,-36.401 374.565,-37.043C373.365,-37.686 372.619,-38.941 372.63,-40.303L372.996,-86.995C372.996,-87.002 372.996,-87.009 372.996,-87.016C372.996,-87.016 373.545,-127.094 373.545,-127.067C373.545,-128.927 373.858,-131.654 374.522,-135.241C375.078,-138.245 375.376,-140.523 375.376,-142.081C375.376,-146.305 374.653,-149.524 372.832,-151.636C371.174,-153.559 368.623,-154.347 365.308,-154.347C359.558,-154.347 355.156,-151.163 351.875,-145.11C349.099,-139.764 347.732,-133.746 347.732,-127.066C347.732,-118.03 347.671,-101.087 347.549,-76.236C347.427,-51.404 347.366,-34.534 347.366,-25.626C347.366,-12.708 347.701,6.639 348.372,32.415C349.044,58.275 349.38,77.685 349.38,90.646C349.38,93.86 349.227,98.62 348.918,104.925C348.616,111.071 348.464,115.711 348.464,118.844C348.464,122.683 349.701,125.887 352.243,128.43C354.768,130.954 357.843,132.209 361.463,132.209C365.923,132.209 369.593,129.705 372.696,125.052C373.709,123.533 375.685,122.991 377.33,123.781C392.113,130.876 408.555,134.406 426.648,134.406ZM433.606,-30.938C451.56,-30.938 465.839,-23.851 476.455,-9.697C486.055,3.104 490.92,19.022 490.92,38.095C490.92,57.641 484.894,73.956 472.935,87.073C460.874,100.301 445.453,106.945 426.648,106.945C416.852,106.945 408.011,105.722 400.123,103.305C400.035,103.278 399.948,103.248 399.863,103.214C389.159,99.031 380.856,95.585 374.95,92.879C373.655,92.285 372.822,90.995 372.813,89.57L372.63,59.541L372.447,30.977C372.447,30.955 372.447,30.933 372.447,30.911L372.813,-0.766C372.826,-1.908 373.372,-2.979 374.288,-3.662C386.937,-13.087 395.876,-19.213 401.084,-22.065C401.095,-22.071 401.106,-22.076 401.116,-22.082C412.201,-28.011 423.037,-30.938 433.606,-30.938ZM433.606,-23.609C424.16,-23.609 414.495,-20.924 404.575,-15.621C399.728,-12.962 391.582,-7.369 380.12,1.134L379.775,30.963L379.958,59.495L380.127,87.175C385.724,89.667 393.149,92.721 402.407,96.34C409.621,98.533 417.702,99.616 426.648,99.616C443.243,99.616 456.876,93.809 467.519,82.135C478.265,70.349 483.592,55.658 483.592,38.095C483.592,20.791 479.302,6.313 470.592,-5.3C461.431,-17.513 449.099,-23.609 433.606,-23.609Z" style="fill:rgb(4,65,4);"/>
        </g>
        <g transform="matrix(1.8105,0,0,1.8105,-104.061,561.826)">
            <path d="M232.007,141.916C206.983,141.916 186.109,134.347 169.385,119.211C151.807,103.341 143.018,82.406 143.018,56.405C143.018,31.625 151.258,6.051 167.737,-20.316C186.048,-49.613 206.677,-64.261 229.627,-64.261C241.59,-64.261 254.956,-61.453 269.727,-55.838C288.404,-48.636 297.742,-39.847 297.742,-29.471C297.742,-24.832 296.216,-20.712 293.164,-17.111C290.112,-13.51 286.328,-11.71 281.812,-11.71C278.272,-11.71 275.189,-12.778 272.565,-14.914C269.94,-17.05 267.407,-19.156 264.966,-21.231C257.764,-26.969 245.984,-29.837 229.627,-29.837C217.175,-29.837 204.846,-18.729 192.639,3.488C181.531,23.874 175.977,41.513 175.977,56.405C175.977,72.519 181.47,85.214 192.456,94.491C202.71,103.158 215.894,107.492 232.007,107.492C239.331,107.492 247.144,105.539 255.445,101.632L276.685,90.28C280.347,88.327 282.971,87.35 284.558,87.35C289.075,87.35 292.981,89.151 296.277,92.752C299.573,96.353 301.221,100.473 301.221,105.111C301.221,114.023 291.821,122.629 273.023,130.929C256.543,138.254 242.871,141.916 232.007,141.916Z" style="fill:rgb(0,0,255);fill-rule:nonzero;"/>
        </g>
        <g transform="matrix(1.8105,0,0,1.8105,-104.061,561.826)">
            <path d="M232.007,145.408C206.04,145.408 184.397,137.508 167.043,121.802C148.734,105.272 139.525,83.489 139.525,56.405C139.525,31.033 147.902,4.83 164.775,-22.167C183.898,-52.763 205.66,-67.754 229.627,-67.754C241.958,-67.754 255.743,-64.891 270.968,-59.103C270.973,-59.101 270.978,-59.099 270.983,-59.097C280.84,-55.296 288.204,-51.027 293.132,-46.388C298.609,-41.233 301.235,-35.557 301.235,-29.471C301.235,-23.986 299.437,-19.112 295.829,-14.853C292.064,-10.411 287.383,-8.217 281.812,-8.217C277.425,-8.217 273.612,-9.558 270.36,-12.205C267.732,-14.345 265.194,-16.454 262.736,-18.542C255.983,-23.888 244.912,-26.345 229.627,-26.345C224.165,-26.345 218.787,-23.784 213.379,-18.911C207.447,-13.566 201.577,-5.525 195.703,5.164C184.942,24.915 179.469,41.976 179.469,56.405C179.469,71.377 184.502,83.203 194.71,91.823L194.711,91.824C204.374,99.991 216.822,103.999 232.007,103.999C238.846,103.999 246.13,102.145 253.878,98.51L275.038,87.2L275.041,87.198C279.438,84.853 282.653,83.858 284.558,83.858C290.06,83.858 294.839,86.007 298.854,90.394C302.776,94.679 304.714,99.591 304.714,105.111C304.714,109.434 302.995,113.743 299.347,117.947C294.592,123.428 286.324,128.874 274.437,134.123C257.398,141.696 243.241,145.408 232.007,145.408ZM232.007,138.423C242.501,138.423 255.687,134.812 271.604,127.738L271.612,127.734C280.58,123.774 287.329,119.779 291.813,115.673C295.629,112.18 297.728,108.729 297.728,105.111C297.728,101.354 296.37,98.027 293.701,95.11C291.124,92.294 288.09,90.843 284.558,90.843C283.289,90.843 281.258,91.799 278.329,93.361L257.091,104.713C257.039,104.741 256.985,104.767 256.932,104.793C248.107,108.945 239.793,110.985 232.007,110.985C214.965,110.985 201.047,106.326 190.202,97.159C178.438,87.225 172.484,73.661 172.484,56.405C172.484,41.051 178.119,22.835 189.572,1.817C189.574,1.813 189.576,1.81 189.578,1.806C195.911,-9.719 202.308,-18.338 208.704,-24.101C215.625,-30.337 222.637,-33.33 229.627,-33.33C247.016,-33.33 259.486,-30.062 267.142,-23.963C267.171,-23.94 267.2,-23.917 267.228,-23.893C269.651,-21.833 272.165,-19.743 274.77,-17.623C276.767,-15.998 279.118,-15.203 281.812,-15.203C285.273,-15.203 288.161,-16.61 290.5,-19.37C292.995,-22.313 294.249,-25.679 294.249,-29.471C294.249,-33.761 292.205,-37.667 288.344,-41.301C283.935,-45.451 277.294,-49.176 268.478,-52.576C254.165,-58.017 241.219,-60.768 229.627,-60.768C207.695,-60.768 188.198,-46.463 170.699,-18.465C154.613,7.273 146.51,32.217 146.51,56.405C146.51,81.324 154.879,101.41 171.725,116.618L171.729,116.621C187.822,131.187 207.926,138.423 232.007,138.423Z" style="fill:rgb(2,2,41);"/>
        </g>
        <g transform="matrix(1.70957,0,0,1.70957,94.2207,574.725)">
            <path d="M482.862,72.702L474.439,143.014C471.387,169.137 469.861,192.758 469.861,213.876C469.861,219.247 468.213,223.642 464.917,227.06C461.621,230.478 457.288,232.187 451.917,232.187C440.686,232.187 434.705,226.022 433.972,213.693C433.606,208.322 433.911,201.547 434.888,193.368L437.268,173.044L440.747,132.577C430.249,135.385 422.864,136.789 418.591,136.789C391.98,136.789 370.435,129.892 353.955,116.098C336.255,101.327 327.405,80.881 327.405,54.757C327.405,18.991 337.476,-9.696 357.617,-31.302C378.247,-53.519 406.323,-64.505 441.846,-64.261C448.56,-64.261 453.626,-61.637 457.044,-56.388C462.293,-61.026 466.931,-63.346 470.96,-63.346C475.842,-63.346 480.084,-61.392 483.685,-57.486C487.287,-53.58 489.087,-49.124 489.087,-44.119C489.087,-8.109 487.012,30.832 482.862,72.702ZM428.845,-32.584C406.384,-28.556 389.417,-17.142 377.942,1.657C368.665,16.916 364.026,34.86 364.026,55.49C364.026,69.894 368.421,81.613 377.21,90.646C386.853,100.656 400.22,105.417 417.31,104.928C428.906,104.562 437.39,98.276 442.761,86.069C448.621,72.397 451.734,49.142 452.1,16.305L454.663,-32.584C452.222,-31.729 447.949,-31.546 441.846,-32.035C435.132,-32.767 430.799,-32.95 428.845,-32.584Z" style="fill:rgb(0,0,255);fill-rule:nonzero;"/>
        </g>
        <g transform="matrix(1.70957,0,0,1.70957,94.2207,574.725)">
            <path d="M486.534,73.142L478.112,143.449C475.079,169.411 473.56,192.887 473.56,213.876C473.56,220.303 471.524,225.537 467.58,229.627C463.602,233.753 458.399,235.886 451.917,235.886C445.123,235.886 439.972,233.868 436.353,230.139C432.844,226.523 430.713,221.158 430.281,213.928C429.904,208.379 430.206,201.381 431.214,192.935L433.588,172.67C433.588,172.67 436.615,137.46 436.615,137.46C428.333,139.5 422.321,140.488 418.591,140.488C390.992,140.488 368.677,133.242 351.585,118.937C333.055,103.474 323.706,82.105 323.706,54.757C323.706,17.93 334.171,-11.574 354.91,-33.822C376.216,-56.766 405.175,-68.21 441.86,-67.96C448.434,-67.957 453.677,-65.827 457.622,-61.634C462.553,-65.333 467.044,-67.044 470.96,-67.044C476.877,-67.044 482.041,-64.727 486.405,-59.993C490.678,-55.358 492.786,-50.059 492.786,-44.119C492.786,-7.996 490.706,31.066 486.542,73.067C486.54,73.092 486.537,73.117 486.534,73.142ZM479.184,72.3C483.319,30.574 485.388,-8.232 485.388,-44.119C485.388,-48.19 483.895,-51.802 480.966,-54.979C478.128,-58.058 474.808,-59.647 470.96,-59.647C467.605,-59.647 463.864,-57.479 459.493,-53.616C458.687,-52.904 457.612,-52.578 456.546,-52.722C455.481,-52.867 454.531,-53.468 453.944,-54.369C451.23,-58.537 447.177,-60.562 441.846,-60.562C441.837,-60.562 441.829,-60.562 441.82,-60.562C407.468,-60.798 380.278,-50.27 360.328,-28.785L360.323,-28.78C340.78,-7.815 331.104,20.053 331.104,54.757C331.104,79.656 339.455,99.18 356.325,113.258L356.329,113.261C372.196,126.542 392.97,133.09 418.592,133.09C422.682,133.09 429.741,131.692 439.792,129.004C440.956,128.693 442.2,128.968 443.123,129.743C444.047,130.517 444.536,131.693 444.433,132.894L440.954,173.36C440.95,173.398 440.946,173.436 440.942,173.474L438.562,193.799L438.561,193.807C437.617,201.708 437.309,208.253 437.663,213.441C437.663,213.452 437.664,213.463 437.665,213.474C437.967,218.565 439.192,222.442 441.662,224.987C444.026,227.423 447.479,228.488 451.917,228.488C456.176,228.488 459.641,227.203 462.255,224.492C464.903,221.746 466.162,218.191 466.162,213.876C466.162,192.63 467.695,168.866 470.765,142.585L470.766,142.574L479.184,72.3ZM428.167,-36.22L428.181,-36.223C430.299,-36.614 434.972,-36.503 442.195,-35.717C447.545,-35.292 451.297,-35.325 453.441,-36.075C454.605,-36.482 455.895,-36.283 456.882,-35.544C457.868,-34.804 458.422,-33.621 458.357,-32.39C458.357,-32.39 455.798,16.424 455.798,16.424C455.42,49.893 452.136,73.584 446.161,87.526C446.157,87.536 446.152,87.547 446.147,87.558C440.108,101.284 430.466,108.214 417.427,108.625L417.415,108.626C399.13,109.148 384.872,103.927 374.552,93.219C365.116,83.517 360.327,70.959 360.327,55.49C360.327,34.12 365.171,15.542 374.782,-0.265L374.785,-0.27C386.823,-19.992 404.608,-31.988 428.167,-36.22ZM429.498,-28.943C408.149,-25.114 392.008,-14.286 381.101,3.581C372.158,18.292 367.725,35.602 367.725,55.49C367.725,68.827 371.723,79.703 379.861,88.067C379.865,88.071 379.869,88.075 379.873,88.08C388.839,97.386 401.311,101.684 417.198,101.231C427.344,100.909 434.666,95.272 439.372,84.587C445.104,71.192 448.043,48.408 448.401,16.264C448.402,16.213 448.403,16.162 448.406,16.112C448.406,16.112 450.729,-28.186 450.729,-28.186C448.253,-28.015 445.195,-28.056 441.551,-28.347C441.515,-28.35 441.48,-28.354 441.445,-28.357C435.288,-29.029 431.318,-29.284 429.527,-28.948C429.518,-28.946 429.508,-28.945 429.498,-28.943Z" style="fill:rgb(2,2,41);"/>
        </g>
    </g>
</svg>
